<svg xmlns="http://www.w3.org/2000/svg" viewBox="0 0 800 400"><defs><style>.a{fill:#eeeff1;}.b{fill:#1d2432;opacity:0.1;}.c{fill:#4b5464;}.d{fill:#404857;}.e{fill:#576071;}.f{fill:#b7a0c2;}.g{fill:#9471a4;}.h{fill:#96637c;}.i{fill:#68707f;}.j{fill:#b3889d;}.k{fill:#d1a1b8;}.l{fill:#89909b;}.m{fill:#ab90b8;}.n{fill:#8e699f;}.o{fill:#7a578a;}.p{fill:#94d5d5;}.q{fill:#4fa9aa;}.r{fill:#33a474;}.s{fill:#70bf9d;}.t{fill:#cccfd4;}.u{fill:#787f8d;}.v{fill:#86b264;}.w{fill:#709d52;}.x{fill:#a0cf7e;}.y{fill:#d9e256;}.z{fill:#88619a;}.aa{fill:#9f80ae;}.ab{fill:#cfbfd6;}.ac{fill:#47ad82;}.ad{fill:#2d9368;}.ae{fill:#7bb7ca;}.af{fill:#4298b4;}.ag{fill:#67acc3;}.ah{fill:#55a2bb;}.ai{fill:#8dc1d2;}.aj{fill:#b68b2e;}.ak{fill:#d0ab92;}.al{fill:#947125;}.am{fill:#d8a537;}.an{fill:#c29431;}.ao{fill:#e6b64e;}.ap{fill:#f4d75c;}.aq{fill:#b48c71;}.ar{fill:#83624d;}.as{fill:#d8bca9;}.at{fill:#232a38;}.au{fill:#3d4554;}.av{fill:#dddfe2;}.aw{fill:#9a9fa9;}.ax{fill:#bbbfc6;}.ay{fill:#359496;}.az{fill:#72cbcc;}.ba{fill:#f9eed7;}.bb{fill:#abafb8;}.bc{fill:#735283;}.bd{fill:#84c8ab;}.be{fill:#5bb68f;}.bf{fill:#2b8b62;}.bg{fill:#267a56;}.bh{fill:#309b6e;}.bi{fill:#1e7678;}.bj{fill:#9f7928;}.bk{fill:#e4ae3a;}.bl{fill:#c0db8e;}.bm{fill:#e4c824;}.bn{fill:#cc9c34;}</style></defs><polygon class="a" points="8.61 346.51 384.98 392.57 793.25 340.08 391.73 292.02 292.69 299.81 205.3 311.21 129 324.9 8.61 346.51"/><polygon class="b" points="153.58 352.49 122.28 345.89 87.43 349.19 109.58 358.87 132.5 361.67 153.58 352.49"/><polygon class="b" points="242.25 357.85 273.54 365.27 248.51 375.87 222.31 372.66 229.7 362.25 242.25 357.85"/><polygon class="b" points="710.34 337.55 716.61 337.88 739.81 346.96 717.66 349.8 710.34 337.55"/><polygon class="b" points="315.06 345.06 319.89 340.75 327.9 345.46 351.2 343.1 367.21 352.78 410.26 350.96 582.76 340.98 603.3 337.55 564.77 328.82 532.25 328.82 497.85 323.91 408.64 330.84 378.13 328.01 369.96 325.75 366.42 327.3 297.94 333.33 295.75 339.39 315.06 345.06"/><polygon class="c" points="82.14 98.37 245.85 28.09 253.58 108.3 252.26 110.81 253.94 112.06 254.61 118.99 253.46 120.39 254.96 122.59 255.81 131.44 248.27 143.75 258.13 155.54 254.5 164.38 118.6 190.39 102.74 171.48 95.89 147.19 98.64 139.41 92.34 134.58 90.62 128.5 90.81 127.21 90.14 126.77 89.67 125.1 89.94 122.33 88.72 121.73 82.14 98.37"/><polygon class="d" points="102.74 171.48 124.54 162.04 149.25 179.57 203.58 167.81 220.7 170.05 258.13 155.54 259.06 165.15 203.58 180.23 198.57 177.31 193.95 182.85 183.87 185.59 177.11 184.86 171.46 188.96 131.78 199.75 127.75 198.52 124.68 201.68 119.47 203.09 113.29 202.01 109.48 195.45 102.74 171.48"/><polygon class="e" points="103.51 118.2 104.15 134.58 105.38 134.58 105.04 117.07 103.51 118.2"/><polygon class="e" points="120.4 107.02 90.62 128.5 90.14 126.77 120.62 104.76 120.4 107.02"/><polygon class="e" points="142.54 109.67 139.78 139.84 140.88 140.43 143.85 110.14 142.54 109.67"/><polygon class="e" points="152.5 114.45 152.34 141.14 153.55 141.92 153.93 111.07 152.5 114.45"/><polygon class="e" points="217.13 101.88 216.71 138.9 217.89 138.9 219.17 102.43 217.13 101.88"/><polygon class="e" points="208.83 97.79 211.51 139.92 212.78 139.41 210.81 97.79 208.83 97.79"/><polygon class="e" points="192.59 100.44 191.08 141.92 189.43 141.92 191.01 98.31 192.59 100.44"/><polygon class="e" points="202.99 92.24 254.61 118.99 254.96 122.59 201.42 95.2 202.99 92.24"/><polygon class="e" points="130.11 101.92 160.06 116.29 198.64 91.52 199.76 96.26 161.22 118.74 128.62 103.28 130.11 101.92"/><path class="f" d="M179,89l-2.18,50.93h22.09l.89-48.25Zm15.44,49.5-11,.92,1-25.28,11,.9Zm.38-28.82-9.7-1-.64-13.45,10.69,3.26Z"/><polygon class="g" points="198.74 85.37 202.96 86.56 203.58 180.23 197.12 181.99 195.93 165.15 197.59 153.69 198.74 85.37"/><path class="f" d="M127.38,101.88l-16.47-2.94.77,35,16.34,3.7ZM116,104.3l7.91,1-.51,9.7-7.4-1Zm.64,30.64V119l7,1,.55,15.43Z"/><polygon class="g" points="126.17 97.51 130.03 97.04 131.78 199.75 127.29 200.97 125.47 195.71 125.47 148.32 126.66 142.65 126.17 97.51"/><polygon class="h" points="95.89 147.19 126.51 139.88 110.26 134.58 93.44 138.49 95.89 147.19"/><path class="f" d="M126.66,142.65,125.11,140l-11.48-3.16.28,32.56,3.51,34.23,2-.56-.39-36.55,5-.71.62,35.85,2.61-.71Zm-7.19,18.11L118.71,145l5.35.67.48,14.74Z"/><polygon class="b" points="130.74 143.91 130.88 157.67 124.26 151.65 124.06 145.67 118.71 145 114.45 138.9 125.11 139.35 130.74 143.91"/><polygon class="h" points="151 150.13 195.92 153.69 258.13 155.54 257.47 148.64 248.31 140.78 151 150.13"/><path class="f" d="M180.12,149.73l-2.44,17.13,2.23,19.8,4-1.07.57-9,9.32-1.37.19,7.67,3.17-.86.47-28.3Zm13.64,19.17-9.32.52.64-13.16,9.07.77Z"/><polygon class="b" points="180.12 149.73 184.81 161.88 185.08 156.26 194.15 157.03 193.76 168.9 203.55 175.18 203.41 153.91 197.59 153.69 180.12 149.73"/><polygon class="i" points="146.22 120.53 146.78 141.2 148.19 141.92 147.81 118.2 146.22 120.53"/><polygon class="i" points="137.59 115.03 136.44 138.9 135.17 138.49 136.38 114.14 137.59 115.03"/><polygon class="e" points="120.44 106.03 119.08 135.6 120.44 136.35 122.15 106.51 120.44 106.03"/><polygon class="i" points="97.49 116.55 98.64 137 97.49 137 96.47 117.44 97.49 116.55"/><polygon class="e" points="161.22 118.74 159.93 142.99 158.78 142.99 159.17 117.07 161.22 118.74"/><polygon class="i" points="166.32 99.96 168.15 140.78 169.64 140.78 167.98 98.94 166.32 99.96"/><polygon class="i" points="199.55 103.28 198.87 139.92 197.59 140.43 197.59 102.43 199.55 103.28"/><polygon class="i" points="229.96 123.84 230.78 136.86 229.13 138.49 228.19 120.39 229.96 123.84"/><polygon class="e" points="243.96 116.96 245.47 136.86 247.38 136.35 246.74 114.14 243.96 116.96"/><polygon class="j" points="110.91 132.26 92.34 134.58 93.44 138.49 109.48 137.37 111.63 135.44 110.91 132.26"/><polygon class="j" points="255.81 131.44 152.34 141.14 148.83 145 151 150.13 257.47 148.64 255.81 131.44"/><polygon class="i" points="112.63 99.25 146.22 116.74 175.39 88.99 176.78 90.97 146.22 120.53 111.63 102.43 112.63 99.25"/><polygon class="i" points="180.45 89.18 229.19 119.97 253.58 108.3 253.94 112.06 229.96 123.84 179.49 92.24 180.45 89.18"/><polygon class="k" points="152.34 141.14 110.91 132.26 109.48 137.37 151 150.13 152.34 141.14"/><polygon class="g" points="175.66 82.24 180.49 82.71 179.91 186.66 171.46 188.96 175.66 82.24"/><polygon class="i" points="108.57 106.03 88.72 121.73 89.67 125.1 110.91 107.56 108.57 106.03"/><polygon class="g" points="109.48 195.45 108.47 95.7 112.44 95.2 117.42 203.65 112.19 205.07 109.48 195.45"/><polygon class="l" points="203.24 67.83 204.68 65.62 204.68 68.11 207.74 68.69 205.06 69.45 204.97 71.94 203.63 69.84 201.04 70.99 202.86 69.07 200.94 67.06 203.24 67.83"/><polygon class="l" points="158.91 87.26 159.1 85.73 160.25 86.69 162.07 85.92 160.92 87.45 162.65 88.6 160.44 88.41 160.06 90.42 159.39 88.51 156.9 88.51 158.91 87.26"/><polygon class="l" points="164.85 73.28 166 71.37 166 73.76 168.2 74.34 165.81 74.81 165.81 77.59 165.14 75.2 162.93 76.06 164.66 74.34 162.65 72.42 164.85 73.28"/><polygon class="l" points="135.74 92.34 136.89 90.33 136.99 92.72 138.71 93.2 137.08 93.49 136.99 95.31 136.32 93.77 134.98 94.64 135.93 93.29 134.59 92.14 135.74 92.34"/><polygon class="l" points="146.37 164.24 146.75 162.04 147.62 163.86 149.05 163.38 147.81 164.53 148.96 165.96 147.42 165.01 146.85 166.73 146.66 165.29 145.03 164.81 146.37 164.24"/><polygon class="c" points="496.47 21.05 479.66 160.44 553.03 168.56 635.18 164.71 656.1 122.41 668.05 59.16 496.47 21.05"/><polygon class="m" points="531.9 77.81 565.22 63.69 566.17 65.48 529.86 82.31 531.9 77.81"/><polygon class="m" points="573.13 64.2 622.63 77.81 624.07 75.69 573.13 61.27 573.13 64.2"/><polygon class="m" points="557.37 86.89 527.75 88 528.33 90.89 530.24 90.89 559.86 90.12 557.37 86.89"/><polygon class="j" points="623.56 70.82 620.73 81.78 625.86 86.89 629.94 72.76 623.56 70.82"/><polygon class="h" points="639.01 75.31 634.79 86.11 625.86 86.89 626.62 74.67 632.43 73.14 639.01 75.31"/><polygon class="k" points="623.56 70.82 633.64 68.93 639.01 75.31 626.62 74.67 623.56 70.82"/><polygon class="h" points="575.56 59.42 573.42 71.63 566.17 72.76 563.18 60.88 570.96 58.2 575.56 59.42"/><polygon class="k" points="564.71 55.14 571.47 52.97 575.56 59.42 563.18 60.88 564.71 55.14"/><polygon class="j" points="516.33 81.29 517.86 93.47 523.6 95.35 528.33 82.31 516.33 81.29"/><polygon class="h" points="531.9 77.81 530.24 90.89 523.6 95.35 525.64 83.19 526.33 79.99 531.9 77.81"/><polygon class="k" points="522.07 74.67 531.9 77.81 525.64 83.19 516.33 81.29 522.07 74.67"/><polygon class="m" points="574.41 75.69 571.86 65.23 569.56 66.54 573.13 79.34 574.41 75.69"/><polygon class="m" points="598.15 88.11 623.35 84.39 623.05 81.42 593.23 86.11 598.15 88.11"/><polygon class="n" points="557.37 86.89 560.62 97.09 570.96 102.07 583.79 102.57 593.08 98.56 598.15 88.11 557.37 86.89"/><polygon class="o" points="588.77 91.65 583.79 102.57 570.96 102.07 569.05 93.45 577.11 90.89 588.77 91.65"/><polygon class="j" points="562.78 81.42 557.37 86.89 569.05 93.45 575.56 85.65 562.78 81.42"/><polygon class="j" points="590.88 79.34 598.15 88.11 588.77 91.65 580.92 85.5 590.88 79.34"/><polygon class="h" points="572.11 86.89 577.76 82.72 584.41 86.11 588.77 91.65 569.05 93.45 572.11 86.89"/><polygon class="k" points="562.78 81.42 574.41 75.69 590.88 79.34 584.41 86.11 572.11 86.89 562.78 81.42"/><polygon class="m" points="588.77 91.65 602.34 101.86 600.2 103.65 587.39 94.69 588.77 91.65"/><polygon class="m" points="569.05 93.45 564.28 108.5 566.66 109.14 570.96 102.07 569.05 93.45"/><polygon class="m" points="530.24 90.89 555.54 110.24 557.37 115.87 527.59 92.67 527.75 88 530.24 90.89"/><polygon class="m" points="615.2 98.71 629.18 83.19 631.28 86.42 613.99 104.54 615.2 98.71"/><polygon class="j" points="598.15 98.71 599.07 114.82 606.68 118.93 606.02 101.29 598.15 98.71"/><polygon class="h" points="615.2 98.71 615.96 115.39 606.68 118.93 603.9 103.41 606.68 99.14 615.2 98.71"/><polygon class="k" points="598.15 98.71 603.9 103.41 615.2 98.71 607.92 94.87 598.15 98.71"/><polygon class="m" points="569.56 117.69 601.6 110.16 598.63 107.13 568.28 114.76 569.56 117.69"/><polygon class="h" points="569.05 105.22 569.56 117.69 562.78 122.93 563.28 111.06 569.05 105.22"/><polygon class="j" points="565.6 111.69 562.78 122.93 555.9 120.26 555.02 110.16 562.78 108.82 565.6 111.69"/><polygon class="k" points="557.37 102.57 569.05 105.22 565.6 111.69 555.02 110.16 557.37 102.57"/><polygon class="d" points="656.1 122.41 602.34 127.45 562.03 153.29 553.03 168.56 569.56 170.39 577.67 168.88 587.82 172.41 645.45 178.79 648.19 164.29 648.22 153.92 651.82 145.09 656.1 122.41"/><polygon class="e" points="653.28 137.37 635.18 132.69 615.2 139.01 621.63 143.58 618.69 149.68 626.59 151.84 638 141.69 653.28 137.37"/><polygon class="e" points="611.37 137.86 615.2 133.81 612.13 131.54 602.94 136.62 611.37 137.86"/><polygon class="e" points="569.56 170.39 576.04 164.29 589.97 169.08 587.82 172.41 569.56 170.39"/><polygon class="e" points="651.82 145.09 641.66 149.74 648.19 164.29 651.82 145.09"/><polygon class="l" points="508.75 110.79 511.43 108.01 510.76 111.74 514.11 113.28 510.38 113.56 510.38 117.01 508.75 113.66 505.78 114.9 507.98 112.51 505.01 109.06 508.75 110.79"/><polygon class="l" points="513.58 128.67 511.57 125.99 511.85 129.06 509.46 130.3 512.04 130.69 511.85 133.17 513.29 130.21 516.16 131.35 514.82 129.54 516.35 127.14 513.58 128.67"/><polygon class="l" points="603.52 59.64 606.39 57.25 605.05 60.6 607.25 62.03 604.28 62.13 603.61 65.1 603.04 62.7 600.36 62.99 602.65 61.17 601.51 58.68 603.52 59.64"/><polygon class="l" points="631.67 105.41 631.38 102.34 633.01 104.45 635.4 103.59 633.87 105.31 635.88 106.65 633.39 106.46 632.72 108.76 632.14 106.27 628.99 106.46 631.67 105.41"/><polygon class="l" points="538.18 124.11 541.12 123.22 539.38 125.23 540.69 127.41 538.7 126.25 537.78 128.48 537.48 126 535.1 125.8 537.43 124.75 536.62 121.68 538.18 124.11"/><polygon class="l" points="522.9 48.98 524.63 47.07 523.76 49.66 525.68 50.61 523.38 50.71 523.09 53.29 522.42 50.8 520.51 50.9 521.94 49.85 520.99 47.84 522.9 48.98"/><polygon class="l" points="536.88 57.05 536.88 53.42 539.46 56 542.82 54.47 540.52 57.05 542.53 59.64 539.08 58.11 538.22 61.65 537.64 58.68 534.49 57.82 536.88 57.05"/><polygon class="p" points="267.5 28.49 466.63 6.66 454.73 56.96 426.27 125.43 303.57 138.71 278.26 73.45 267.5 28.49"/><polygon class="q" points="278.26 73.45 287.72 62.45 306.87 67.81 324.49 62.7 328.32 51.72 344.92 45.85 358.7 50.96 356.66 58.87 370.19 61.68 376.45 52.74 392.15 40.74 407.72 43.55 415.38 54.28 427.81 49.36 439.13 52.74 440.92 58.11 454.73 56.96 452.97 63.86 438.62 72.15 291.3 80.19 278.26 73.45"/><polygon class="r" points="278.26 73.45 300.94 73.11 397.57 67.17 424.32 60.62 449.85 65.66 451.39 70.58 440.95 115.05 434.7 120.56 437.26 130.74 434.65 141.85 296.79 150.86 297.44 132.15 290.49 124.52 286.14 106.35 288.19 97.32 282.82 92.5 278.26 73.45"/><polygon class="s" points="278.26 73.45 333.03 79.83 356.23 79.04 366.39 69.08 407.79 75.34 443.6 66.98 451.5 70.6 452.97 63.86 424.24 57.98 397.21 64.11 333.87 69.08 328.01 70.44 325.26 69.76 278.26 73.45"/><polygon class="t" points="296.79 150.86 317.8 113.21 383.2 112.36 437.26 130.74 440.95 115.05 384.21 101.25 293.08 98 333.87 69.08 325.26 69.76 282.82 92.5 286.14 106.35 303.43 109.54 290.49 124.52 296.79 150.86"/><polygon class="i" points="387.04 53.67 379.09 51.47 372.62 40.74 370.66 42.79 376.45 52.74 387.04 56.96 387.04 53.67"/><polygon class="i" points="389.85 58.62 400 46.74 398.16 46.3 389.21 55.04 389.85 58.62"/><polygon class="u" points="392.14 72.98 389.34 42.79 384.69 46.3 388.9 72.49 392.14 72.98"/><polygon class="v" points="384.69 46.3 374.08 46.74 361.45 38.35 359.21 28.36 367.06 24.95 370.9 17.15 372.75 15.09 369.04 11.27 384.72 3.49 389.79 9.15 398.16 10.65 410.79 17.38 406.64 20.22 406.32 23.7 407.69 29.74 415.47 35.78 403.51 47.51 384.69 46.3"/><polygon class="w" points="410.79 17.38 387.68 20.7 406.32 23.7 410.79 17.38"/><polygon class="w" points="369.04 11.27 387.68 20.7 370.9 17.15 369.04 11.27"/><polygon class="w" points="359.21 28.36 384.69 46.3 415.47 35.78 403.51 51.98 384.69 46.3 374.48 49.36 357.11 41.51 359.21 28.36"/><polygon class="w" points="387.68 20.7 377.34 29.77 400 41.07 387.68 20.7"/><polygon class="x" points="377.34 29.77 359.21 28.36 370.9 17.15 377.34 29.77"/><polygon class="x" points="384.72 3.49 387.68 20.7 398.16 10.65 384.72 3.49"/><polygon class="x" points="406.32 23.7 394.23 31.53 415.47 35.78 406.32 23.7"/><polygon class="y" points="404.53 129.47 409.25 126.66 413.21 128.83 407.47 131.89 404.53 129.47"/><polygon class="y" points="414.62 135.47 417.55 134.57 419.21 135.85 416.28 137.64 414.62 135.47"/><polygon class="y" points="396.75 86.19 399.94 84.53 402.11 85.68 399.17 87.47 396.75 86.19"/><polygon class="y" points="437.47 76.11 439.77 75.34 441.43 77.13 438.75 77.77 437.47 76.11"/><polygon class="y" points="405.68 80.45 406.96 78.79 409.89 80.19 407.6 81.6 405.68 80.45"/><polygon class="y" points="396.11 78.28 397.64 77.38 399.04 78.66 397 79.68 396.11 78.28"/><polygon class="y" points="406.96 68.32 408.62 67.17 410.53 67.94 408.23 69.47 406.96 68.32"/><polygon class="y" points="310.96 91.04 313.64 89.89 316.06 91.04 313.51 92.19 310.96 91.04"/><polygon class="y" points="288.62 83 290.28 81.72 292.19 82.36 290.79 83.89 288.62 83"/><polygon class="y" points="296.4 78.79 298.57 78.15 299.98 78.92 298.06 79.55 296.4 78.79"/><polygon class="y" points="285.94 77.51 288.11 76.23 290.15 77 287.98 79.04 285.94 77.51"/><polygon class="b" points="434.19 102.61 434.7 98.81 419.95 95.13 410.79 100.28 402.23 103.61 401.38 105.43 416.74 109.17 419.21 108.4 423.08 108.24 434.19 102.61"/><polygon class="z" points="401.38 105.43 405.04 104.46 407.25 97.91 401.76 97.91 401.38 105.43"/><polygon class="aa" points="434.19 102.61 431.38 102.13 428.92 96.76 434.7 96.76 434.19 102.61"/><polygon class="z" points="437.89 84.7 437.25 101.74 434.19 102.61 433.3 98.81 424.62 101.74 423.08 108.24 419.95 109.95 420.32 97.32 429.44 92.31 431.15 85.3 437.89 84.7"/><polygon class="aa" points="413.89 81.73 411.59 87.32 409.68 90.51 399.46 93.77 398.16 104.65 401.38 105.43 403.88 100.08 416.62 103.15 416.74 109.17 419.95 109.95 421.81 98.81 424.36 93.5 433.68 93.5 434.7 86.04 423.21 83.04 413.89 81.73"/><polygon class="ab" points="411.59 87.32 433.68 93.5 421.81 98.81 399.55 93.5 411.59 87.32"/><polygon class="ab" points="418.09 80.04 437.89 84.7 434.7 86.04 413.89 81.73 418.09 80.04"/><polygon class="b" points="437.86 68.32 443.6 66.98 449.83 69.84 443.84 70.43 437.86 68.32"/><polygon class="b" points="417.72 75.6 426.93 74.06 435.89 75.94 425.66 77.77 417.72 75.6"/><polygon class="u" points="443.6 66.98 444.55 50.13 448 49.36 445.68 67.93 443.6 66.98"/><polygon class="ac" points="435.89 47.94 447.46 53.67 456.09 51.21 450.23 42.91 456.09 40.62 449.85 32.57 453.81 30.66 448 17.89 444.62 30.28 448 32.32 440.4 38.96 444.36 41.51 435.89 47.94"/><polygon class="ad" points="444.36 41.51 450.23 42.91 445.99 46.3 444.36 41.51"/><polygon class="ad" points="448 32.32 449.85 32.57 448.45 34.55 448 32.32"/><polygon class="u" points="426.86 75.94 427.89 48.02 423.81 47.51 424.83 75.73 426.86 75.94"/><polygon class="ac" points="411.9 45.05 427.81 49.36 438.62 42.85 428.28 33.44 433.68 31.36 426.27 22.46 429.64 21.05 424.56 11.27 419.47 21.4 422.92 22.94 417.36 31.55 423.81 33.09 411.9 45.05"/><polygon class="ad" points="422.92 22.94 426.27 22.46 424.59 24.95 422.92 22.94"/><polygon class="ad" points="423.81 33.09 428.28 33.44 425.26 36.91 423.81 33.09"/><polygon class="b" points="375.26 70.43 390.23 77.38 407.79 75.34 375.26 70.43"/><polygon class="b" points="300.94 73.11 307.13 74.83 314.18 72.69 306.62 72.02 300.94 73.11"/><polygon class="u" points="306.23 73.94 304.57 59.64 307.13 58.62 307.89 73.43 306.23 73.94"/><polygon class="ac" points="296.53 60.15 307.34 62.69 319.64 57.09 309.99 48.91 313.13 47.51 307.13 40.62 309.99 38.57 305.08 30.79 301.77 38.83 305.21 40.23 299.85 46.74 305.34 48.91 296.53 60.15"/><polygon class="ad" points="309.99 48.91 305.34 48.91 307.25 52.74 309.99 48.91"/><polygon class="ad" points="305.21 40.23 307.13 40.62 305.72 43.9 305.21 40.23"/><polygon class="ae" points="371.92 328.82 366.42 327.3 359.39 292.38 370.9 290.94 371.92 328.82"/><polygon class="af" points="375 285.42 378.13 328.01 371.92 328.82 366.6 283.98 375 285.42"/><polygon class="ag" points="379.68 306.32 376.45 305.17 369.96 312.38 378.13 314.29 379.68 306.32"/><polygon class="ah" points="295.75 339.39 303.53 337.63 312.95 298.25 301.08 290.94 295.75 339.39"/><polygon class="ag" points="313.82 317.56 308.91 315.17 299.83 318.18 316.23 323.91 313.82 317.56"/><polygon class="ai" points="327.08 318.18 377.04 311.42 403.06 307.53 395.88 315.11 325.97 325.14 327.08 318.18"/><polygon class="ae" points="409.1 335.74 403.25 334.15 395.87 287.26 410.26 283.37 409.1 335.74"/><polygon class="ae" points="295.14 276.61 288.74 337.26 295.75 339.39 304.08 296.11 312.95 298.25 315.06 345.06 320.99 346.51 325.97 289.6 313.57 281.12 295.14 276.61"/><polygon class="ah" points="320.99 346.51 327.9 345.46 332.9 300.98 399.98 289.15 409.1 335.74 416.56 334.85 415.33 272.93 328.11 288.28 323.19 292.38 320.99 346.51"/><polygon class="j" points="290.36 266.39 289 277.84 323.19 292.38 331.38 278.04 290.36 266.39"/><polygon class="h" points="323.19 292.38 420.66 276.82 419.68 265.55 356.16 265.55 324.21 282.14 323.19 292.38"/><polygon class="k" points="390.05 252.43 290.36 266.39 324.21 282.14 419.68 265.55 390.05 252.43"/><polygon class="aj" points="392.81 166.65 411.27 196.66 402.88 208.99 383.2 193.83 392.81 166.65"/><polygon class="ak" points="310.54 219.73 327.08 229.52 331.38 227.46 329.59 220.46 318.68 208.84 310.54 219.73"/><polygon class="aj" points="325.97 181.65 294.52 210.06 310.54 219.73 332.9 206.97 335.68 194.3 325.97 181.65"/><polygon class="al" points="356.52 305.69 362.16 325.75 352.61 333.33 341.19 325.09 339.44 307.53 348.24 301.8 356.52 305.69"/><polygon class="am" points="339.44 307.53 334.83 312.89 339.44 328.82 343.33 326.64 342.37 322.58 339.44 307.53"/><polygon class="an" points="342.37 322.58 353.7 331.42 355.06 333.33 352.16 335.92 339.44 328.82 342.37 322.58"/><polygon class="aj" points="362.16 325.75 360.59 332.24 352.16 335.92 353.7 331.42 362.16 325.75"/><polygon class="am" points="346.74 302.21 350.15 318.18 353.16 317.56 352.16 303.64 346.74 302.21"/><polygon class="al" points="383.39 299.13 379.68 306.32 395.88 325.75 412.06 319.41 412.06 319.41 405.13 308.47 399.98 305.76 395.88 296.34 383.39 299.13"/><polygon class="am" points="379.68 306.32 397.66 319.95 399.98 322.58 395.88 325.75 377.04 311.42 379.68 306.32"/><polygon class="an" points="412.06 319.41 397.66 319.95 395.88 325.75 410.26 324.73 412.06 319.41"/><polygon class="am" points="393.97 298.25 399.57 309.31 405.13 308.47 400.39 300.98 393.97 298.25"/><polygon class="i" points="388.31 232.18 410.26 261.25 395.24 269.94 381.5 269.2 359.39 254.56 362.71 243.03 388.31 232.18"/><polygon class="c" points="368.6 247.94 381.5 269.2 358.41 258.8 368.6 247.94"/><polygon class="i" points="340.65 239.75 337.73 279.48 353.16 286.64 366.6 280.3 368.6 247.33 349.61 237.3 340.65 239.75"/><polygon class="ao" points="340.65 173.18 325.97 181.65 332.9 206.97 365.71 230.74 389.35 217.01 392.81 166.65 381.24 164.55 340.65 173.18"/><polygon class="ap" points="349.61 168.02 340.65 173.18 356.36 188.15 382.57 179.96 381.24 164.55 373.29 163.1 349.61 168.02"/><polygon class="ak" points="349.61 168.02 359.16 181.65 377.04 174.83 373.29 163.1 349.61 168.02"/><polygon class="ao" points="323.49 139.09 321.42 135.33 319.16 134.3 313.87 137.47 317.19 143.12 323.49 139.09 323.49 139.09"/><polygon class="ak" points="385.23 95.26 397.05 133.68 397.21 143.12 391.73 147.53 377.04 152.59 369.26 165.84 351.45 163.58 326.26 134.3 338.41 100.72 357.25 94.31 385.23 95.26"/><polygon class="aq" points="338.41 100.72 362.97 157.44 373.29 163.1 370.22 171.71 349.61 168.02 336.45 153.45 334.04 147.95 330.24 146.57 319.16 134.3 338.41 100.72"/><polygon class="aq" points="384.21 107.82 374.25 128.16 357.11 114.85 367.15 111.37 371.58 112.19 373.49 108.98 378.89 104.61 384.21 107.82"/><polygon class="ar" points="377.04 152.59 354.38 160.24 373.29 163.1 377.04 152.59"/><polygon class="ar" points="330.24 146.57 339.44 140.92 336.45 153.45 330.24 146.57"/><polygon class="ar" points="325.26 135.58 330.11 131.75 333.59 137.83 325.26 135.58"/><polygon class="as" points="367.15 111.37 374.25 128.16 377.22 127.77 379.7 126.45 373.49 108.98 367.15 111.37"/><polygon class="ar" points="374.25 128.16 377.98 130.07 379.7 126.45 374.25 128.16"/><polygon class="ar" points="368.6 137.83 384.98 135.43 384.41 137.99 369.82 140.55 368.6 137.83"/><ellipse class="at" cx="363.9" cy="119.93" rx="2.49" ry="1.37" transform="translate(-19.2 113.2) rotate(-17.23)"/><ellipse class="at" cx="381.24" cy="113.59" rx="2.49" ry="1.37" transform="translate(-16.54 118.06) rotate(-17.23)"/><polygon class="c" points="357.11 114.85 356.36 112.39 367.15 111.37 368.6 115.05 357.11 114.85"/><polygon class="c" points="373.49 108.98 374.25 105.23 379.43 103.38 384.69 106.45 384.21 107.82 378.89 106.45 373.49 108.98"/><polygon class="c" points="381.55 93.04 338.41 100.72 336.6 116.39 340.65 121.3 342.34 136.76 335.62 131.34 334.45 128.71 330.67 127.34 321.14 130.72 317.8 126.82 313.53 103.38 325.97 95.3 333.03 79.83 365.71 75.94 390.76 82.8 381.55 93.04"/><polygon class="au" points="390.76 82.8 338.41 100.72 385.23 95.26 390.76 82.8"/><polygon class="i" points="390.76 82.8 333.03 79.83 366.39 69.08 390.76 82.8"/><polygon class="i" points="338.41 100.72 333.03 79.83 313.53 103.38 338.41 100.72"/><polygon class="au" points="338.41 100.72 317.8 126.82 319.16 134.3 330.67 127.34 340.65 121.3 338.41 100.72"/><polygon class="av" points="340.65 121.3 346.72 119.91 349 120.35 347.87 122.55 343.26 126.45 341 124.58 340.65 121.3"/><polygon class="c" points="347.87 122.55 346.72 119.91 352.57 118.57 347.87 122.55"/><polygon class="ao" points="343.26 126.45 340.65 121.3 330.67 127.34 335.62 131.34 343.26 126.45"/><polygon class="an" points="389.35 217.01 332.9 206.97 340.65 239.75 368.6 247.94 388.31 232.18 389.35 217.01"/><polygon class="c" points="410.26 261.25 400.39 300.98 383.39 299.13 381.5 269.2 410.26 261.25"/><polygon class="c" points="337.73 279.48 339.44 307.53 356.52 305.69 366.6 280.3 337.73 279.48"/><polygon class="aq" points="329.59 220.46 335.68 218.74 339.44 227.78 340.65 239.75 327.08 229.52 329.59 220.46"/><polygon class="ak" points="335.68 218.74 351.2 229.04 340.65 239.75 335.68 218.74"/><polygon class="ak" points="402.88 208.99 420.33 199.73 408.83 165.54 403.97 163.95 400.39 169.68 402.88 208.99"/><polygon class="aq" points="400.39 169.68 408.83 165.54 410.26 148.63 402.13 150.78 398.75 159.16 400.39 169.68"/><polygon class="aq" points="397.05 133.68 391.73 147.53 400.39 144.54 397.05 133.68"/><polygon class="ak" points="410.26 148.63 398.91 139.74 391.73 147.53 398.75 159.16 410.26 148.63"/><polygon class="aw" points="559.26 323.52 535.53 319.41 532.25 328.82 554.09 331.96 559.26 323.52"/><polygon class="ax" points="535.53 319.41 548.63 317.56 575.93 323.55 558.19 324.59 535.53 319.41"/><polygon class="ax" points="558.19 324.59 429.33 345.62 392.56 338.54 371.51 343.16 412.06 355.17 488.02 353.53 572.66 334.97 573.75 325.75 558.19 324.59"/><polygon class="aw" points="554.09 281.12 558.19 324.59 569.66 331.96 575.93 277.36 554.09 281.12"/><polygon class="aw" points="336.3 267.19 338.43 290.96 426.8 311.05 424.14 351.35 371.51 343.16 367.21 352.78 435.4 365.27 444.61 298.25 399.98 284.6 336.3 267.19"/><path class="i" d="M456.9,348.35l3.28-39.45,106.47-24.63,3,47.7ZM541,262,439.74,291.6l-6,13.88,1.68,59.79L582.76,341l7.92-79.72Z"/><polygon class="q" points="325.26 250.06 328.31 269.2 433.72 305.48 441.06 288.56 325.26 250.06"/><polygon class="ay" points="432.88 293.5 498.13 261.25 592.32 249.24 590.68 261.25 433.72 305.48 432.88 293.5"/><polygon class="az" points="325.26 250.06 356.23 244.32 420.23 244.28 465.71 224.03 478.47 221.67 592.32 249.24 432.88 293.5 325.26 250.06"/><polygon class="ba" points="356.23 244.32 408.27 278.45 535.53 255.11 465.71 224.03 356.23 244.32"/><polygon class="j" points="392.06 251.06 388.51 257.58 391.1 259.14 441.27 260.3 448.44 259.34 445.02 251.7 392.06 251.06"/><polygon class="h" points="388.51 257.58 388.99 260.5 448.1 262.21 448.44 259.34 388.51 257.58"/><polygon class="h" points="428.64 254.6 430.02 254.55 429.15 251.51 428.05 251.49 428.64 254.6"/><polygon class="h" points="398.67 251.14 397.27 251.12 396.09 254.39 397.62 254.39 398.67 251.14"/><polygon class="h" points="434.53 254.7 435.81 254.65 434.57 251.57 433.5 251.56 434.53 254.7"/><polygon class="h" points="423.01 254.7 424.24 254.7 423.81 251.44 422.81 251.43 423.01 254.7"/><polygon class="h" points="403.7 251.2 402.48 251.18 401.61 254.39 403.15 254.39 403.7 251.2"/><polygon class="h" points="440.1 251.64 439.12 251.63 440.37 254.75 441.75 254.8 440.1 251.64"/><polygon class="h" points="408.64 251.26 407.47 251.24 407.04 254.29 408.27 254.19 408.64 251.26"/><polygon class="h" points="417.59 254.5 418.92 254.5 418.84 251.38 417.75 251.37 417.59 254.5"/><polygon class="h" points="412.47 254.29 413.75 254.39 413.71 251.32 412.63 251.31 412.47 254.29"/><polygon class="az" points="469.6 237.09 462.63 238.12 460.52 242.96 463.45 242.96 463.93 239.28 472.74 239.14 469.6 237.09"/><polygon class="l" points="483.31 243.85 460.52 229.91 458.59 229.75 456.5 227.46 451.69 226.63 455.37 229.91 457.94 230.54 459.01 232.05 477.58 242.93 479.32 245.38 481.78 246.1 483.83 244.97 483.31 243.85"/><polygon class="az" points="455.37 229.91 456.5 227.46 460.52 229.91 459.01 232.05 455.37 229.91"/><polygon class="bb" points="477.58 242.93 446.87 240.91 440.44 242.55 481.78 246.1 477.58 242.93"/><polygon class="az" points="483.31 243.85 489.8 245.56 488.16 248.83 481.78 246.1 483.31 243.85"/><polygon class="j" points="574.64 240.91 593.89 247.23 596.81 254.66 595.82 262.21 585.07 262.84 583.72 251.63 568.5 247.74 574.64 240.91"/><polygon class="h" points="595.82 262.21 604.99 257.58 605.97 246.1 595.01 246.1 592.32 249.24 595.82 262.21"/><polygon class="k" points="574.64 240.91 590.36 239.84 605.97 246.1 592.32 249.24 574.64 240.91"/><polygon class="u" points="595.43 241.88 564.57 212.78 556.91 215.66 590.3 244.54 595.43 241.88"/><polygon class="aw" points="556.91 215.66 571.37 187.32 571.75 175.55 556.91 202.42 556.91 215.66"/><polygon class="u" points="572.98 176.25 569.56 170.39 540.08 163.45 523.97 162.32 520.15 166.01 525.06 172.97 570.46 177.47 572.98 176.25"/><polygon class="ay" points="540.08 163.45 536.8 151.2 521.86 153.72 527.18 168.62 540.08 163.45"/><polygon class="q" points="528.82 156.18 499.33 145.53 467.23 145.08 456.7 157.16 527.18 168.62 528.82 156.18"/><polygon class="az" points="467.23 145.08 482.29 138.71 536.8 151.2 528.82 156.18 467.23 145.08"/><polygon class="h" points="571.37 187.32 562.33 181.03 569.56 170.39 577.65 177.47 571.37 187.32"/><polygon class="h" points="564.57 212.78 556.91 202.42 549.41 212.78 556.23 221.94 564.57 212.78"/><polygon class="ab" points="567.59 180 570.66 175.97 572.98 178.92 569.99 182.05 567.59 180"/><polygon class="ab" points="553.64 212.78 556.85 210.06 559.3 212.78 556.47 215.31 553.64 212.78"/><polygon class="bc" points="195.51 331.82 198.59 311.76 235.46 310.67 253.47 320.9 228.18 330.87 195.51 331.82"/><polygon class="bd" points="196.92 203.78 186.79 226.99 191.69 244.63 196.1 259.97 210.39 258.35 206.17 229.44 196.92 203.78"/><polygon class="r" points="219.44 235.31 217.26 221.94 196.92 203.78 205.45 238.86 208.05 249.26 219.85 246 219.44 235.31"/><polygon class="r" points="246.06 305.89 267.5 275.72 260.53 251.69 241.83 262.48 232.82 266.85 223.57 295.79 246.06 305.89"/><polygon class="be" points="260.53 251.69 227.91 303.77 216.76 293.13 237.19 260.98 245.18 258.35 260.53 251.69"/><polygon class="bf" points="242.57 264.13 244.83 276.76 237.81 265.12 242.57 264.13"/><polygon class="bf" points="242.25 280.88 261.67 283.92 258.98 287.71 242.25 280.88"/><polygon class="r" points="205.45 249.26 171.26 237.09 179.56 265.12 199.13 293.13 212.12 289.92 205.45 249.26"/><polygon class="be" points="194.19 271.35 171.26 237.09 172.49 268.14 199.13 293.13 210.39 296.6 204.02 281.45 194.19 271.35"/><polygon class="ad" points="209.59 336.87 206.17 321.86 194.84 293.13 217.94 279.4 243.12 293.94 231.25 337.56 209.59 336.87"/><polygon class="bg" points="217.94 279.4 219.44 326.91 217.94 333.46 212.12 283.65 217.94 279.4"/><polygon class="bg" points="224.5 283.19 220.6 336.09 223.94 336.55 228.68 285.6 224.5 283.19"/><polygon class="bg" points="207 287.39 216.76 335.56 212.82 335.56 204.02 289.92 207 287.39"/><polygon class="bg" points="234.94 293.13 224.64 336.55 227.75 337.29 237.81 294.56 234.94 293.13"/><polygon class="r" points="203.2 268.96 208.05 292.61 232.03 287.39 245.18 258.35 232.03 225.76 213.11 241.52 203.2 268.96"/><polygon class="be" points="232.03 225.76 208.05 292.61 191.69 282.48 194.19 271.35 205.45 238.86 232.03 225.76"/><polygon class="bf" points="245.18 258.35 218.22 264.26 242.57 264.13 245.18 258.35"/><polygon class="bf" points="214.48 274.69 199.67 255.55 197.86 260.77 214.48 274.69"/><polygon class="bf" points="220.6 257.63 205.45 238.86 210 236.62 220.6 257.63"/><polygon class="bf" points="194.19 271.35 172.49 268.14 177.18 272.55 194.19 271.35"/><polygon class="bf" points="185.01 257.63 191.69 244.63 187.41 242.84 185.01 257.63"/><polygon class="r" points="208.05 292.61 164.09 319.33 165.52 296.6 188.35 289.92 208.05 292.61"/><polygon class="bd" points="208.05 292.61 194.19 271.35 184.76 279.66 177.54 291.28 208.05 292.61"/><polygon class="be" points="208.05 292.61 184.76 279.66 165.52 296.6 208.05 292.61"/><polygon class="aa" points="174.4 320.9 219.44 326.91 233.64 341.24 222.31 372.66 187.18 368.36 181.67 347.93 185.8 345.13 179.56 340.08 174.4 320.9"/><polygon class="z" points="219.44 326.91 253.47 320.9 250.33 340.08 247.02 343.54 249.26 346.63 245.94 366.95 222.31 372.66 219.44 326.91"/><polygon class="az" points="179.56 340.08 220.6 345.32 224.5 347.95 220.99 351.69 181.67 347.93 179.56 340.08"/><polygon class="q" points="220.6 345.32 250.33 340.08 249.26 346.63 220.99 351.69 220.6 345.32"/><polygon class="bd" points="208.05 292.61 181.63 295.38 172.49 321.86 186.07 327.22 202.54 310 208.05 292.61"/><polygon class="be" points="208.05 292.61 222.68 307.87 202.56 324.66 192.14 327.83 185.01 323.63 208.05 292.61"/><polygon class="ac" points="172.49 321.86 183.94 356.34 189.69 331.31 185.01 323.63 172.49 321.86"/><polygon class="bh" points="202.56 324.66 183.94 356.34 185.01 323.63 202.56 324.66"/><polygon class="bf" points="200.51 302.75 209.59 318.79 206.17 321.86 200.51 302.75"/><polygon class="bf" points="195.51 309.49 175.82 312.2 174.46 316.16 195.51 309.49"/><polygon class="bf" points="203.84 232.24 217.26 221.94 213.44 218.52 203.84 232.24"/><polygon class="bf" points="202.27 225.76 189.38 221.04 190.88 217.61 202.27 225.76"/><polygon class="bf" points="203.84 232.24 186.79 226.99 187.87 230.88 203.84 232.24"/><polygon class="be" points="222.68 307.87 236.46 290.13 259.51 307.87 277.46 345.89 222.68 307.87"/><polygon class="bd" points="236.46 290.13 270.19 302.75 277.46 345.89 236.46 290.13"/><polygon class="bf" points="246.74 304.11 236.57 318 243.9 322.59 246.74 304.11"/><polygon class="bf" points="253.15 312.83 272.09 314.04 273.11 320.08 253.15 312.83"/><polygon class="v" points="143.44 276.65 116.82 276.65 119.14 269.89 133.06 271.94 143.44 276.65"/><polygon class="x" points="123.97 263.89 132.14 266.62 143.44 276.65 119.14 269.89 123.97 263.89"/><polygon class="bi" points="129.79 286.68 101.8 281.05 78.39 289.69 92.17 300.74 118.89 303 129.79 286.68"/><polygon class="ac" points="94.42 247.12 105.42 293.24 99.92 298.97 89.65 243.07 94.42 247.12"/><polygon class="r" points="118.07 206.28 109.86 228.53 105.42 293.24 100.81 296.92 104.4 227.47 113.82 200.27 118.07 206.28"/><polygon class="ac" points="119.14 269.89 113.82 297.84 110.68 297.84 116.14 261.98 119.14 269.89"/><polygon class="ap" points="115.41 159.9 118.71 163.44 122.27 162.86 126.9 164.86 127.97 167.27 131.22 166.73 137.99 169.66 136.02 174.93 138.62 176.31 139.26 183.16 137.64 185.61 139.72 188.07 140.6 197.35 136.25 197.59 135.27 199.74 130.55 201.86 128.07 201.45 127.2 203.37 123.28 205.13 120.82 204.97 117.55 207.7 112.16 205.14 110.36 203.37 108.02 203.17 102.3 200.45 102.74 196.04 100.5 194.37 99.22 190.05 99.92 188.07 98.05 186.08 95.65 177.96 99.49 176.74 100.45 173.57 102.74 171.48 106.81 170.05 109.18 165.59 115.41 159.9"/><polygon class="bj" points="111.31 185.3 118.07 178.77 125.9 183.82 119.14 192.13 111.31 185.3"/><polygon class="bk" points="137.99 169.66 125.9 183.82 138.62 176.31 137.99 169.66"/><polygon class="bk" points="140.6 197.35 122.96 187.44 135.27 199.74 140.6 197.35"/><polygon class="bk" points="119.14 192.13 117.55 207.7 123.28 205.13 119.14 192.13"/><polygon class="bk" points="102.3 200.45 115.55 188.99 100.5 194.37 102.3 200.45"/><polygon class="bk" points="111.31 185.3 95.65 177.96 100.45 173.57 111.31 185.3"/><polygon class="bk" points="115.41 159.9 118.07 178.77 122.27 162.86 115.41 159.9"/><polygon class="bk" points="126.9 164.86 122.27 181.48 131.22 166.73 126.9 164.86"/><polygon class="bk" points="115.26 181.48 109.18 165.59 102.74 171.48 115.26 181.48"/><polygon class="bk" points="113.1 186.86 98.05 186.08 99.22 190.05 113.1 186.86"/><polygon class="bk" points="116.76 190.05 112.14 205.13 108.02 203.17 116.76 190.05"/><polygon class="bk" points="121.69 188.99 130.55 201.86 127.2 203.37 121.69 188.99"/><polygon class="bk" points="124.69 185.3 139.26 183.16 139.72 188.07 124.69 185.3"/><polygon class="ap" points="109.86 228.53 105.95 226.59 106.1 222.56 102.7 217.15 100.3 215.95 99.82 212.57 96.75 207.7 90.75 211.07 87.72 209.87 74.23 213.1 74.21 217.01 71.27 218.44 67.41 225.4 67.46 228.26 63.63 232.22 66.85 237.04 68.95 237.81 68.52 239.53 71.27 243.65 73.64 244.97 74.95 249.16 88.83 249.93 91.36 247.43 95.18 250.29 101.11 241.5 99.82 238.7 103.89 237.38 109.86 228.53"/><polygon class="bj" points="78.46 230.72 84.74 222.18 93.75 228.99 84.88 237.81 78.46 230.72"/><polygon class="bk" points="96.75 207.7 84.74 222.18 87.72 209.87 96.75 207.7"/><polygon class="bk" points="74.23 213.1 84.74 222.18 71.27 218.44 74.23 213.1"/><polygon class="bk" points="78.46 230.72 63.63 232.22 67.41 225.4 78.46 230.72"/><polygon class="bk" points="84.88 237.81 74.95 249.16 71.27 243.65 84.88 237.81"/><polygon class="bk" points="93.75 228.99 109.86 228.53 106.1 222.56 93.75 228.99"/><polygon class="bk" points="88.23 234.48 95.18 250.29 88.83 249.93 88.23 234.48"/><polygon class="bk" points="81.86 234.48 66.85 237.04 68.52 239.53 81.86 234.48"/><polygon class="bk" points="90.75 231.98 103.89 237.38 101.11 241.5 90.75 231.98"/><polygon class="bk" points="88.99 225.4 99.82 212.57 102.7 217.15 88.99 225.4"/><polygon class="ap" points="119.14 269.89 117.64 266.99 115.33 267.29 107.56 261.99 106.25 259.48 102.78 258.72 106.58 249.16 108.42 247.6 108.83 243.49 112.68 241.91 114.12 242.67 115.63 240.69 119.89 238.94 122 239.46 126.04 236.41 131.56 243.49 130.91 246.27 133.9 246.48 138.18 251.98 135.82 254.29 136.44 256.21 132.14 266.62 128.45 265.36 127.55 267.77 119.14 269.89"/><polygon class="bj" points="114.12 252.79 121.69 248.09 126.82 255.49 118.07 259.17 114.12 252.79"/><polygon class="bk" points="126.04 236.41 121.69 248.09 119.89 238.94 126.04 236.41"/><polygon class="bk" points="114.12 252.79 108.83 243.49 106.58 249.16 114.12 252.79"/><polygon class="bk" points="115.59 255.17 102.78 258.72 107.56 261.99 115.59 255.17"/><polygon class="bk" points="118.07 259.17 119.14 269.89 115.33 267.29 118.07 259.17"/><polygon class="bk" points="122.96 257.11 132.14 266.62 127.55 267.77 122.96 257.11"/><polygon class="bk" points="126.82 255.49 138.18 251.98 136.44 256.21 126.82 255.49"/><polygon class="bk" points="123.97 251.38 131.56 243.49 133.9 246.48 123.97 251.38"/><polygon class="bk" points="118.16 250.29 115.63 240.69 112.68 241.91 118.16 250.29"/><polygon class="x" points="109.86 228.53 122.14 217.64 146.58 222.56 126.8 228.53 109.86 228.53"/><polygon class="v" points="109.86 228.53 126.04 236.41 146.58 222.56 109.86 228.53"/><polygon class="v" points="92.17 271.29 76.14 260.2 56.35 282.38 86.11 274.12 92.17 271.29"/><polygon class="x" points="106.58 275.59 76.14 260.2 86.11 274.12 106.58 275.59"/><polygon class="az" points="78.39 289.69 105.42 293.24 113.82 321.49 109.58 358.87 75.13 354.65 76.61 325.08 80.14 320.08 77.33 310.73 78.39 289.69"/><polygon class="q" points="105.42 293.24 129.79 286.68 129.29 311.21 123.97 320.91 129 324.9 128.39 355.17 109.58 358.87 105.42 293.24"/><polygon class="j" points="77.33 310.73 106.86 315.87 113.82 321.49 107.73 329.68 76.61 325.08 77.33 310.73"/><polygon class="h" points="106.86 315.87 129.29 311.21 129 324.9 107.73 329.68 106.86 315.87"/><polygon class="bl" points="85.72 274.23 98.98 305.62 106.58 275.59 85.72 274.23"/><polygon class="x" points="98.98 305.62 117.85 276.65 106.58 275.59 98.98 305.62"/><polygon class="x" points="120.87 278.74 129.29 272.71 144.12 294.46 121.94 285.57 120.87 278.74"/><polygon class="v" points="120.87 278.74 144.12 294.46 112.68 284.6 120.87 278.74"/><polygon class="v" points="691.54 247.95 692.62 255.72 685.63 262.54 675.4 261.96 665.4 262.13 681.26 250.39 691.54 247.95"/><polygon class="x" points="691.54 247.95 677.82 241.33 665.4 262.13 691.54 247.95"/><polygon class="bi" points="663.35 294.74 693.66 284.93 725.87 291.35 694.88 312.78 663.35 294.74"/><polygon class="r" points="695.84 299.67 693.93 259.54 698.16 227.32 693.93 226.1 690.52 257.36 691.47 305.13 695.84 299.67"/><polygon class="r" points="711.13 262.95 706.22 304.94 702.66 302.95 708.95 251.62 711.13 262.95"/><polygon class="bm" points="680.52 226.1 684.5 226.89 685.3 229.65 692.92 235.32 694.98 232.14 697.36 233.39 710.66 227.61 713.62 216.39 712.51 214.66 714.92 211.49 707.97 205.68 705.23 206.44 704.84 203.05 698.16 197.46 692.62 203.05 687.94 202.43 678.37 207.09 680.52 212.32 679.25 214.87 680.52 226.1"/><polygon class="bj" points="688.93 215.88 695.57 211.35 701.03 217.83 694.48 223.09 688.93 215.88"/><polygon class="bn" points="694.48 223.09 692.92 235.32 697.36 233.39 694.48 223.09"/><polygon class="bn" points="701.03 217.83 710.66 227.61 706.62 229.21 701.03 217.83"/><polygon class="bn" points="688.93 215.88 678.37 207.09 679.25 214.87 688.93 215.88"/><polygon class="bn" points="680.52 226.1 691.47 219.17 685.3 229.65 680.52 226.1"/><polygon class="bn" points="701.03 217.83 714.92 211.49 713.62 216.39 701.03 217.83"/><polygon class="bn" points="695.57 211.35 698.16 197.46 687.94 202.43 695.57 211.35"/><polygon class="bn" points="704.84 203.05 698.16 214.4 707.97 205.68 704.84 203.05"/><polygon class="ap" points="675.4 261.96 679.5 262.2 680.52 260.4 690.52 257.36 691.54 260 693.95 259.91 699.1 263.74 699.33 266.61 703.86 267.29 700.75 276.11 698.16 277.23 699.34 280.11 697.38 285.67 692.92 284.48 690.99 286.83 687.46 287.47 686.54 286.52 683.72 288.15 679.66 284.11 679.01 281.73 676.89 281.35 672.02 276.5 674.34 274.01 673.18 271.52 675.4 261.96"/><polygon class="bj" points="684.98 267.48 692.62 271.02 689.36 278.03 682.29 274.39 684.98 267.48"/><polygon class="bk" points="684.98 267.48 680.52 260.4 675.4 261.96 684.98 267.48"/><polygon class="bk" points="690.52 257.36 688.04 268.82 693.95 259.91 690.52 257.36"/><polygon class="bk" points="692.62 271.02 703.86 267.29 699.1 263.74 692.62 271.02"/><polygon class="bk" points="682.29 274.39 672.02 276.5 673.18 271.52 682.29 274.39"/><polygon class="bk" points="689.36 278.03 687.46 287.47 683.72 288.15 689.36 278.03"/><polygon class="bk" points="685.63 276.11 676.89 281.35 679.66 284.11 685.63 276.11"/><polygon class="bk" points="691.47 273.51 700.75 276.11 699.34 280.11 691.47 273.51"/><polygon class="bk" points="689.36 278.03 697.38 285.67 690.99 286.83 689.36 278.03"/><polygon class="ap" points="695.52 226.81 698.85 228.4 699.87 225.94 707.48 224.41 709.61 225.63 711.73 223.56 719.83 221.93 720.68 227.64 724.3 227.59 733.24 238.93 730.35 241.06 731.61 243.19 728.64 250.95 725.87 252.58 726.18 257.36 715.89 261.18 713.49 260.4 711.13 262.95 699.01 252.58 698.76 249.8 695.26 249.37 695.38 238.93 696.64 237.02 695.43 234.23 695.52 226.81"/><polygon class="bj" points="706.22 237.7 715.43 235.65 718.81 244.87 708.47 247.01 706.22 237.7"/><polygon class="bk" points="715.43 235.65 719.83 221.93 724.3 227.59 715.43 235.65"/><polygon class="bk" points="718.81 244.87 728.64 250.95 726.18 257.36 718.81 244.87"/><polygon class="bk" points="717.14 240.31 733.24 238.93 731.61 243.19 717.14 240.31"/><polygon class="bk" points="706.22 237.7 695.52 226.81 699.87 225.94 706.22 237.7"/><polygon class="bk" points="706.22 237.7 695.43 234.23 695.38 238.93 706.22 237.7"/><polygon class="bk" points="708.47 247.01 699.01 252.58 695.26 249.37 708.47 247.01"/><polygon class="bk" points="711.63 246.36 711.13 262.95 715.89 261.18 711.63 246.36"/><polygon class="bk" points="711.73 223.56 710.66 236.71 707.48 224.41 711.73 223.56"/><polygon class="az" points="663.35 294.74 695.84 299.67 706.22 324.79 689.69 353.4 671.27 348.82 667.25 321.39 670.18 317.3 666.08 313.35 663.35 294.74"/><polygon class="q" points="695.84 299.67 725.87 291.35 722.65 314.25 719.18 319.6 721.35 323.56 717.66 349.8 689.69 353.4 695.84 299.67"/><polygon class="j" points="666.08 313.35 693.77 317.8 694.88 321.79 692.62 327.8 667.25 321.39 666.08 313.35"/><polygon class="h" points="693.77 317.8 722.65 314.25 721.35 323.56 692.62 327.8 693.77 317.8"/><polygon class="x" points="683.72 288.15 691.25 293.82 692.62 300.76 681.26 315.79 683.72 288.15"/><polygon class="v" points="698.16 299.03 691.25 293.82 681.26 315.79 698.16 299.03"/><polygon class="x" points="704.6 287.11 713.04 281.19 720.68 280.11 732.01 299.81 704.6 287.11"/><polygon class="v" points="721.5 275.24 732.01 299.81 713.04 281.19 721.5 275.24"/></svg>