<?xml version="1.0" encoding="UTF-8"?><svg id="a" xmlns="http://www.w3.org/2000/svg" viewBox="0 0 200 100"><defs><style>.k{fill:#576071}.aa,.ab,.ac,.ad,.ae,.af,.ag,.ah,.ai,.aj,.ak,.al,.am,.an,.ao,.ap,.aq,.ar,.as,.at,.au,.av,.aw,.ax,.ay,.az,.ba,.bb,.bc,.bd,.be,.bf,.bg,.bh,.bi,.bj,.k,.l,.m,.n,.o,.p,.q,.r,.s,.t,.u,.v,.w,.x,.y,.z{stroke-width:0}.l{fill:#735283}.m{fill:#4b9db7}.n{fill:#89909b}.o{fill:#545c6d}.p{fill:#72cbcc}.q{fill:#4298b4}.r{fill:#359496}.s{fill:#9f80ae}.t{fill:#8e699f}.u{fill:#9471a4}.v{fill:#8b6651}.w{fill:#68707f}.x{fill:#dfbda5}.y{fill:#8dc1d2}.z{fill:#9a9fa9}.aa{fill:#734d61}.ab{fill:#b3889d}.ac{fill:#4fa9aa}.ad{fill:#84c8ab}.ae{fill:#c3987b}.af{fill:#abafb8}.ag{fill:#454d5d}.ah{fill:#94d5d5}.ai{fill:#cccfd4}.aj{fill:#fff}.ak{fill:#51596a}.al{fill:#5bb68f}.am{fill:#bbbfc6}.an{fill:#dddfe2}.ao{fill:#404857}.ap{fill:#3e90aa}.aq{fill:#67acc3}.ar{fill:#4b5464}.as{fill:#e8cab6}.at{fill:#e6b64e}.au{fill:#47ad82}.av{fill:#e4ae3a}.aw{fill:#dbcfe0}.ax{fill:#787f8d}.ay{fill:#5f6878}.az{fill:#96637c}.ba{opacity:.1}.ba,.bf{fill:#232a38}.bb{fill:#1e7678}.bc{fill:#e5b244}.bd{fill:#b7a0c2}.be{fill:#cfbfd6}.bg{fill:#88619a}.bh{fill:#3da87b}.bi{fill:#33a474}.bj{fill:#55a2bb}</style></defs><path class="an" d="m2.02 84.36 50.83-5.81 28.31-2.81 116.39 8.62L164.82 94l-95.25 2.13L2.02 84.36z" id="b"/><g id="c"><path class="n" d="m2.02 84.36-.96 6.31 68.34 8.79 2.86-2.95-2.33-1.99L2.02 84.36z"/><path class="af" d="m69.93 94.52 93.65-2.99 2.63 2.75-1.39 3.1-95.42 2.08.53-4.94z"/><path class="n" d="m163.58 91.53 33.97-7.17 1.51 6.79-34.24 6.23-1.24-5.85z"/><path class="ba" d="m12.2 83.2 9.65-1.11 12.16-1.39 6.26 1.81-12.94 1.64-1.62-.16-1.03.56-7.78.69-4.7-2.04zM50.23 86.23l9.25-1.78 7.01-.81 5.94-.57 7.5 1.25-14.56 5.86-15.14-3.95zM79.1 86.48l18.84-3.19 13.16 2.3-12.72 3.7-15.38-.4-3.9-2.41zM188.12 83.66l-21.91-1.62-10.65 1.97-14.14-1.61-28.82 4.24 33.71 4.75 24.64-4.95 6.66.56 10.51-3.34z"/></g><g id="d"><path class="ax" d="M25.52 53.07 24.01 53l-.76-9.34 3.92-.55-1.65 9.96z"/><path class="z" d="m26.14 43.79-.62 9.28 2.54.06 1.85-10.09-3.77.75z"/><path class="aj" d="m17.96 19.03 33.33-4.12-.64 25.82-30.21 2.74-2.48-24.44z"/><path class="bi" d="m48.39 15.98-.35 22.46.55 1.99 1.99-.21 1.17-25.06-3.36.82z"/><path class="ad" d="M48.04 38.44 20.02 40.7l1.03 2.89 28.05-4.05-1.06-1.1zM15.95 19.39l-2.38-3.57L49.1 10.7l5.04 2.56-28.03 4.67-10.16 1.46z"/><path class="bi" d="m13.57 15.82 1.28 27.1 4.03 2.84 1.37-12.17-3.93-16.3-2.75-1.47z"/><path class="al" d="m16.32 17.29 2.56 28.48 32.78-3.2 2.48-29.3-37.81 4.02Zm32.77 22.25L21.18 42.1l-1.39-21.79 30.49-3.94-1.19 23.16Z"/><path class="s" d="m21.91 22.09 5.12-.54.24 1.3-5.22.76-.14-1.52z"/><path class="ac" d="m29.46 21.11 1.51-.16.09 1.4-1.49.2-.11-1.44z"/><path class="z" d="m29.66 23.74 1.47-.2-.05.64-1.35.18-.07-.62z"/><path class="at" d="m32.57 20.72 1.58-.18v1.33l-1.4.18-.18-1.33z"/><path class="z" d="m32.75 23.26 1.51-.18-.11.64-1.33.18-.07-.64z"/><path class="az" d="m35.64 20.29 1.46-.16.07 1.37-1.33.18-.2-1.39z"/><path class="z" d="m35.84 22.78 1.42-.16.02.57-1.44.21v-.62z"/><path class="bc" d="m23.18 36.33 4.49-7.28 3.8 3.02 5.77-5.08 3.61 1.83 4.77-7.05 1.09 1.79-5.63 7.42-3.75-2.43-6.04 6.09-3.3-3.43-3.25 6.18-1.56-1.06z"/><path class="z" d="m32.48 36.92 3.53-.38-.03.99-3.47.24-.03-.85zM37.49 36.4l3.36-.27.07.82-3.46.28.03-.83zM42.47 36.02l3.23-.24.05.83-3.2.18-.08-.77z"/></g><g id="e"><path class="aj" d="m14.97 58.8 17.48-3.33 1.49 14.9-17.28 2.17-1.69-13.74z"/><path class="ai" d="m19.42 62.41.91 8.47h.37l-.91-8.58-.37.11zM21.96 61.97l.91 8.47.37-.01-.91-8.57-.37.11zM24.53 61.69l.91 8.47h.38l-.91-8.58-.38.11zM27.18 61.25l.91 8.46h.37l-.91-8.57-.37.11z"/><path class="ax" d="M24.68 84.55 22 84l-.88-11.04 2.75-.74.81 12.33z"/><path class="z" d="m25.52 72.52 1.81 11.63-2.65.4-2.23-12.01 3.07-.02z"/><path class="bg" d="m8.98 55.83 3.94 17.86 2.5 1.01v-8.9l-.75-9-5.69-.97z"/><path class="bd" d="m34.01 53.2-5.61-1.93-19.42 4.56 4.45 1.77 9.3-1.31 11.28-3.09z"/><path class="bg" d="m30.24 56.22 1.18 12.23 1.1 1.78 1.42.09-1.49-14.85-2.21.75z"/><path class="bd" d="m31.42 68.45-14.55 2.19-.21 1.9 16.76-1.69-.37-1.37-1.63-1.03z"/><path class="s" d="m34.01 53.2-20.58 4.39 1.99 17.1 19.85-2.82-1.26-18.68ZM17.55 71.47l-1.51-11.95 15.47-2.79 1.54 12.75-15.49 1.99Z"/><path class="bh" d="m17.11 60.52 2.43-.52-.13.93-2.24.31-.06-.72z"/><path class="n" d="m24.39 59.25 2.09-.35.03.52-2.09.37-.03-.54zM27.41 58.73l2.06-.38-.04.62-1.99.24-.03-.48z"/><path class="ab" d="m17.24 62.34 12.5-2 .07.69-12.43 1.96-.14-.65z"/><path class="al" d="m18.33 68.77 1.43-3.15 3.12 1.36 2.28-3.03 2.79.9 1.52-1.96.34.38-1.75 2.6-2.82-1.13-2.25 3.25-3.12-1.4-1.06 2.52-.48-.34z"/></g><g id="f"><path class="ai" d="m123.65 25.3 2.2-1.1 27.38 9.36-3.02 2.27-18.87-4.67-7.69-5.86z"/><path class="z" d="m123.65 25.3 26.56 10.53-1.3 6.55-25.44-13.97.18-3.11z"/><path class="az" d="m128.38.49 3.48 2.83-3.84 32.33-2.57 1-.64-14.19L128.38.49z"/><path class="aj" d="m88.92 6.44 35.89-2.93-1.19 30.12-32.5.09-2.2-27.28z"/><path class="aa" d="m92.77 8.36 31.68-1.65.36-3.2-33.69 2.47-.39 1.29.85 1.09h1.19z"/><path class="az" d="m90.73 7.27 2.04 1.09 1.37 25.55-2.11-.37-1.3-26.27z"/><path class="ab" d="m86.45 4.79 3.11 29.76 35.89 2.11L128.38.49l-41.93 4.3Zm36.17 27.19-30.01.27-1.87-24.98 32.8-2.12-.92 26.82Z"/><path class="ac" d="m95.01 10.19 4.85-.18-.23 1.51-4.53.18-.09-1.51z"/><path class="n" d="m101.24 9.96 3.34-.13v1.46h-3.39l.05-1.33z"/><path class="an" d="m110.8 9.69 10.53-.6-.55 20.79-9.56.04-.42-20.23z"/><path class="m" d="m95.7 17.93.5 11.9 2.23-.09-.32-11.99-2.41.18z"/><path class="at" d="m99.18 16.23.45 13.51 2.14-.05-.54-13.33-2.05-.13z"/><path class="au" d="m102.79 19.67.28 10.02 1.97-.04-.24-10.07-2.01.09z"/><path class="s" d="m106.46 29.6-.51-15.24 2.11-.19.41 15.39-2.01.04z"/><path class="n" d="m112.83 11.78 6.08-.27-.11.86-5.94.2-.03-.79zM112.86 14.32l6.08-.27-.1.86-5.94.2-.04-.79zM112.93 16.9l3.3-.14-.1.86-3.16.07-.04-.79z"/><path class="m" d="m113.07 19.65 1.01-.12-.09 1.12-.99-.11.07-.89z"/><path class="n" d="m115.29 19.78 3.55-.09-.02.57-3.53-.02v-.46z"/><path class="at" d="m113.12 22.12.87-.12.07 1.03h-1.01l.07-.91z"/><path class="n" d="m115.31 22.3 2.34-.02-.06.52-2.3-.02.02-.48z"/><path class="au" d="m113.09 24.41.99.04-.05 1.03-.84-.02-.1-1.05z"/><path class="n" d="m115.29 24.64 2.72.02-.05.46-2.67.04v-.52z"/><path class="s" d="m113.23 26.95.92-.05-.09.94-.85-.05.02-.84z"/><path class="n" d="m115.29 27.06 1.25-.02-.07.55-1.18-.05v-.48z"/></g><g id="g"><path class="ay" d="m167.31 67.36 1.78-.75 1.86-10.8-4.27-.6.63 12.15z"/><path class="ax" d="m163.94 55.81.76 10.87 2.61.68.69-11.55h-4.06z"/><path class="t" d="m190.24 24.4-2.81 32.25-3.37 1.72-.75-6.32 1.51-26.85 5.42-.8z"/><path class="bd" d="m145.75 21.93 6.31-1.95 38.18 4.42-4.12 2.16-21.29-1.36-19.08-3.27z"/><path class="aj" d="m148.06 24.4.74 28.85 33.41 2.56 1.1-28.31-35.25-3.1z"/><path class="bd" d="m152.06 52.05 31.25 1.84-1.1 1.92-32.15-2.33v-1.43h2z"/><path class="t" d="m150.55 25.2 1.51 26.85-1.51.84-2.49-19.39v-8.3h2.49z"/><path class="s" d="m145.75 21.93 1.84 33.27 36.47 3.17 2.06-31.8-40.37-4.63Zm4.8 30.96-1.37-27.07 31.92 3.15.36 25.77-30.9-1.85Z"/><path class="az" d="m153.06 28.29 2.4.28-.1 1.61-2.13-.21-.17-1.68z"/><path class="al" d="m156.49 28.67 2.51.24-.21 1.58-2.3-.24v-1.58z"/><path class="bc" d="m160.2 29.01 2.54.24-.27 1.55-2.37-.17.1-1.62z"/><path class="z" d="m153.26 32.17 5.39.52-.1.92-5.32-.41.03-1.03zM175.65 30.52l3.23.35-.14 1.37-3.09-.31v-1.41z"/><path class="ax" d="m153.61 35.65 2.17.11-.11 1.36-2.02-.07-.04-1.4z"/><path class="am" d="m157.14 36.31 3.78.15-.04.55-3.82-.15.08-.55z"/><path class="ax" d="m153.54 38.6 2.02.07.03 1.4-1.94-.04-.11-1.43z"/><path class="am" d="m157.06 39.26 1.84.04-.04.55-1.87-.04.07-.55z"/><path class="ax" d="m153.88 41.31 1.96.07-.17 1.33-1.86.04.07-1.44z"/><path class="am" d="m157.11 41.89 2.99.1-.14.55-2.89-.07.04-.58z"/><path class="ax" d="m163.58 37.97 6.13-5.4 3.61 3.38 3.71 1.02.13 7.94-6.15 3.12-6.84-2.18-.59-7.88z"/><path class="bc" d="m177.03 36.97-1.93 2.65-4.2 2.24-1.19-9.29 7.32 4.4z"/><path class="az" d="m177.03 36.97-6.13 4.89 3.69.54 3.29-1.01-.85-4.42z"/><path class="al" d="m170.9 41.86-6.73 3.99 7 4.58 7.51-4.86-.8-4.18-6.98.47z"/><path class="ax" d="m164.08 29.37 2.1.23-.13 1.55-2.25-.23.28-1.55z"/></g><g id="h"><path class="ap" d="m161.54 44.87 1.51.58-1.87 16.99-1.69.11.29-7.73 1.76-9.95z"/><path class="k" d="m165.26 86.76-2.78-.35-2.2-13 4.98-.62v13.97z"/><path class="w" d="m137.8 73.41 1.15 10.98 3.43.32-.41-10.71-4.17-.59zM122.55 86.8l2.75-.47 2.02-14.11-5.53-.87.76 15.45z"/><path class="ax" d="m129.33 69.24-10.89-1.6 1.32 18.52 2.79.64.79-13.39 17.71 1.78 1.3 13.72 3.13.38L147 77.57l-1.22-4.54-16.45-3.79z"/><path class="w" d="m145.78 73.03-.3 16.26 2.52-.32 1.97-13 14.6-1.6.69 12.39 2.76-.35 2.42-17.44-24.66 4.06z"/><path class="ah" d="m116.42 65.47 23.69-3.93 32.76 4.18-26.81 5.75-29.64-6z"/><path class="p" d="m116.42 65.47-.2 2.99 29.56 4.57 1.22-1.97-1.26-1.22-29.32-4.37z"/><path class="ac" d="m145.74 69.84 27.13-4.12-.38 4.36-26.71 2.95-.04-3.19z"/><path class="aq" d="m140.91 59.95 1.11-16.31 19.52 1.23-2.05 17.68-14.5-.51-4.08-2.09z"/><path class="bj" d="m128.38 62.55-.19 2.07 19.87 2.88 1.12-2.88-20.8-2.07z"/><path class="ap" d="m148.06 65.25 4.64-1.75 6.79-.95.29 2.48-11.72 2.47v-2.25z"/><path class="y" d="m128.38 62.55 12.53-2.6 18.58 2.6-11.43 2.7-19.68-2.7z"/><path class="aj" d="m143.75 45.45-1.19 12.88 15.35 2.13 1.69-14.07-15.85-.94z"/><path class="az" d="m144.99 46.9 2.16.17-.08.74-2.17-.21.09-.7z"/><path class="z" d="m144.87 48.75 2.75.24-.06.37-2.75-.22.06-.39zM144.81 49.65l1.75.11-.06.38-1.75-.14.06-.35z"/><path class="ac" d="m152.66 47.48 5 .4-.09.7-4.99-.46.08-.64z"/><path class="z" d="m152.51 49.03 2.5.22-.08.52-2.53-.28.11-.46z"/><path class="u" d="m144.13 56.63.34-3.3.94.09-.25 3.33-1.03-.12z"/><path class="av" d="m145.57 56.79.31-4.31 1.08.12-.39 4.31-1-.12z"/><path class="bi" d="m146.98 56.96.51-5.45 1.01.1-.48 5.46-1.04-.11z"/><path class="az" d="m148.8 53.25-.31 3.88.98.12.34-3.88-1.01-.12z"/><path class="z" d="m152.13 52.34 4.98.53-.09.57-4.96-.55.07-.55zM151.96 53.78l3.76.4-.09.57-3.74-.42.07-.55zM151.63 56.91l3.76.39-.08.57-3.75-.41.07-.55zM151.8 55.38l2.75.29-.09.57-2.72-.31.06-.55z"/><path class="q" d="m142.64 61.48 2.16.31 1.69-.35-2.29-.3-1.56.34zM139.76 62.11l2.13.28 2.16-.45-2.14-.3-2.15.47zM152.89 62.26l-2.23-.29-1.81.39 2.15.3 1.89-.4zM145.56 61.89l2.54.36 1.78-.38-2.61-.33-1.71.35zM136.66 61.7l2.35.31 2.16-.47-2.18-.31-2.33.47zM142.66 62.49l2.63.35 2.06-.43-2.54-.36-2.15.44zM153.66 62.36l-1.91.41 1.91.26 1.9-.42-1.9-.25zM138.26 62.17l-2.38-.32-2.84.57 2.5.34 2.72-.59zM141.9 61.38l1.54-.34-2.15-.28-1.54.31 2.15.31zM148.28 63.5l-2.88.61 2.15.29 2.8-.63-2.07-.27zM150.26 62.82l-2.16-.31-2.04.43 2.21.3 1.99-.42zM152.94 63.19l-1.93-.27-1.97.42 2.04.27 1.86-.42zM144.65 64.01l2.87-.61-2.22-.3-.77-.1-2.63-.35-.78-.1-2.1-.28-2.73.6 8.36 1.14z"/></g><g id="i"><path class="r" d="m64.89 82.9-3.43-.33-1.58.72 3.38 1.34 1.63-1.73z"/><path class="bb" d="m59.88 83.29-.4 1.16 3.18 1.14 1.14-1.32-3.92-.98z"/><path class="ac" d="m72.38 84.09-1.72-.83-4.84-.36v1.73l6.56-.54z"/><path class="r" d="m66.38 83.97 6 .12.24 1.28-5.96.6-.48-1.06.2-.94z"/><path class="ac" d="m64.89 82.9-4.17 4.01 2.69.99 2.97-3.93-.56-1.61-.93.54z"/><path class="bb" d="m66.38 83.97.28 2-3.25 2.52-.75-.66.36-.54 3.36-3.32z"/><path class="r" d="m60.72 86.91-.34 1.3 3.03.28-.39-1.2-2.3-.38z"/><path class="ay" d="m64.69 78.44.2 4.46 1.49 1.07.57-5.37-2.26-.16z"/><path class="n" d="m78.19 64.01.28 2.71-3.89 1.23-1.01-3.23 4.62-.71z"/><path class="w" d="m74.67 65.53-3.23-1.34-6.75-.45.96 2.79 8.93 1.42.09-2.42z"/><path class="ai" d="m67.94 61.5 10.25 2.51-3.52 1.52-9.98-1.79 3.25-2.24z"/><path class="ap" d="m47.63 46.34-2.74 1.86 7.96 30.35 16.35 1.24 1.92-3.58-23.49-29.87z"/><path class="m" d="m81.63 72.09-.47 3.65-11.96 4.05-.14-2.34 6.18-3.71 6.39-1.65z"/><path class="aq" d="m47.63 46.34 18.96-2.54 3.64 25.96-5.63 3.71-10.3 1.85-6.67-28.98z"/><path class="p" d="m70.23 69.76 11.4 2.33-12.57 5.36-14.76-2.13 15.93-5.56z"/><path class="w" d="m58.93 70.79-9.37-2.29-3.99-.36 1.55 3.75L58 74.03l.93-3.24z"/><path class="n" d="m62.12 69.76.4 2.69L58 74.03l-.03-2.79 1.37-.9 2.78-.58z"/><path class="ai" d="m49.71 66.56 12.41 3.2-4.15 1.48-12.4-3.1 4.14-1.58z"/></g><g id="j"><path class="u" d="m101.83 81.16 3.83 3.46-4.19.58-2.58-.58-1.57.36-.95-.36v-3.03l3.04-2.18 2.42 1.75z"/><path class="o" d="M105.66 85.79h-5.22l-1.55-1.17-.46 1.17h-2.06v-1.17h9.29v1.17z"/><path class="l" d="m99.12 79.76 1.9 1.83.81-.43-1.39-1.26-1.32-.14z"/><path class="u" d="m88.08 82.19 1.72 3.78-2.66.58-4.85-.58.7-2.27s2.54-1.48 2.54-1.51 2.54 0 2.54 0Z"/><path class="o" d="M82.3 85.97h7.5v1.17h-7.5z"/><path class="l" d="m86.04 82.33.37 1.74-.98.18-.08-1.74.69-.18z"/><path class="o" d="m91.74 69.51 2.46 6.4 3.46-.14 2.66-4.16-.16-10.53-4.95 1.26-3.47 7.17z"/><path class="t" d="m98.86 42.28 6.07 7.73-2.02 4.61-4.23-2.2.18-10.14zM79.96 47.53l-1.6 7.84 1.07 3.01 4.33-.94.96-1.9-4.76-8.01z"/><path class="bd" d="m85.54 43.73-3.72 2.54-.28 1.26h-1.58l5.19 13.55h7.06l7.95-2.51-1.3-16.29-1.4.6-.58-.6h-4.47l-6.87 1.45z"/><path class="ag" d="m89.66 46.27 2.3 1.89 1.38-3.05-1.96.61-1.72.55z"/><path class="ag" d="m91.96 48.16 2.78 5.43-1.4 3.5-2.27-2.75.89-6.18z"/><path class="be" d="m85.54 43.73 1.21 5.33 4.63-3.34 5.13.59-3.71-4.03-7.26 1.45z"/><path class="az" d="m79.14 34.31-2.71 1.39.69 1.28 2.84-1.47-.19-1.03-.63-.17z"/><path class="x" d="m96.12 24.34 2.74 13.72-4.94 1.52-3.25 4.89-4.72-1.38-6.8-8.76 1.93-7.83 7.93-3.71 7.11 1.55z"/><path class="ae" d="m84.12 25.07 5.24 16.13 4.56-1.62-1.33 1.05.21 1.65-1.42 3.44-5.84-1.99-2.71-3.99-.33-1.38-.94-.49-2.42-3.56 1.94-7.81 3.04-1.43z"/><path class="v" d="m93.92 39.58-7.17 2.16 6.05.54 1.12-2.7z"/><path class="ae" d="m96 28.81-3.59 5.08-3.98-2.91 1.86-1.19 1.39.09.73.12.66-.5 1.33-.71 1.6.02z"/><path class="as" d="m91.68 29.88.73 4.01 1.15.02.79-.57-1.28-3.84-1.39.38z"/><path class="v" d="m92.41 33.89 1.29.59.65-1.14-1.94.55z"/><circle class="bf" cx="90.29" cy="31.58" r=".6"/><circle class="bf" cx="94.9" cy="30.34" r=".6"/><path class="v" d="m91.15 35.93 2.86.07 1.95-1.33.02.89-1.81 1.1-2.68.07-.34-.8zM81.56 37.87l2.4-.89-1.13 2.76-1.27-1.87zM80.6 34.92l1.69-.85.76 1.84-2.45-.99z"/><path class="ak" d="m88.43 30.98 3.25-1.1-.8-.57-2.2.84-.25.83zM93.07 29.5l2.93-.69-.3-.46-2.63.37v.78z"/><path class="ak" d="m95.18 24.32-3.68 2.25-6.78.36-.76 2.82.62 1.77-.14 4.39-1.35-2.01-.04-.9-.78-.3-2.81.93-.55-.88-1.37-.79.48-7.08 4.12-2.27 1.82-3.08 9.6.58 3.03 2.5-1.41 1.71z"/><path class="ax" d="m91.68 24.2-7.72-4.67-5.94 5.35 4.74.19 6.25.64 2.67-1.51z"/><path class="ao" d="m96.59 22.61-4.91 1.59-8.92.87 1.96 1.86h6.96l4.44-2.59.47-1.73zM84.72 26.93l-7.18 5.03 1.6 2.35 3.13-1.61 2.31-1.18.14-4.59z"/><path class="az" d="m82.27 32.7.82 1.2 3.34-1.72v-.89l-.45-.49-3.71 1.9z"/><path class="ab" d="m85.98 30.8 1.91-.09-1.46 1.47-.45-1.38z"/><path class="s" d="m77.54 59.39 3.11 1.03 2.11-1.03 1-1.95-5.4-2.07-.82 4.02z"/><path class="az" d="m79.96 47.53 9.05 13.55h2.14l-9.33-14.81-1.86 1.26zM98.86 42.28l-1.77 17.26-1.88.59 1.67-17.85h1.98z"/><path class="ay" d="m85.15 63.85 8.77 3.6-3.56 8.98-3.61 1.71-2.67-3.94.5-4.85.57-5.5z"/><path class="o" d="m90.36 76.43-6.28-2.23L83 83.7l5.08-1.51 2.28-5.76z"/><path class="ar" d="m89.32 61.21-4.17 2.64 2.31 2.27 6.46 1.33 6.24-6.37-10.84.13zM94.2 75.91l6.13-4.3.11 8.29-4.07 1.69-2.17-5.68z"/><path class="bg" d="m85.15 61.08 15.01-2.51v2.51l-15.01 2.77v-2.77z"/><path class="x" d="m82.76 59.39 1.96 2.79.26 1.09.84.46 1.64 2.39-2.9 3.23-.8-3.5-.61-1.01-.81-.47-4.8-4.98h5.22z"/><path class="az" d="m85.82 63.73-2.06 2.12-1.42-1.48 2.38-2.19 1.1 1.55z"/><path class="aw" d="m83.54 63.27 1.31.15v1.3l-1.31-.09v-1.36z"/><path class="ay" d="m83.93 63.73.27.24.41-.3.09.13-.51.39-.37-.32.11-.14z"/><path class="ac" d="m108.44 45.35 4.77 2.1-3.53 11.97-9.68-2.79 3.25-11.85 5.19.57z"/><path class="r" d="m103.25 44.78 9.96 2.67.46-1.53-10-2.66-.42 1.52z"/><path class="x" d="m112.66 49.34-3.48.34-.18 3.02 2.03 2.16 1.13-1.18 1.51-2.69-1.01-1.65z"/><path class="ae" d="m112.66 49.34-1.63 5.52 1.38-.45 1.71-3.44-1.46-1.63z"/></g></svg>